<?xml version="1.0" standalone="no"?>
<!DOCTYPE svg PUBLIC "-//W3C//DTD SVG 20010904//EN"
 "http://www.w3.org/TR/2001/REC-SVG-20010904/DTD/svg10.dtd">
<svg version="1.0" xmlns="http://www.w3.org/2000/svg"
 width="500.000000pt" height="500.000000pt" viewBox="0 0 500.000000 500.000000"
 preserveAspectRatio="xMidYMid meet">
<metadata>
Created by potrace 1.16, written by Peter Selinger 2001-2019
</metadata>
<g transform="translate(0.000000,500.000000) scale(0.100000,-0.100000)"
fill="#000000" stroke="none">
<path d="M1410 3916 l0 -95 53 -4 52 -3 -52 -2 c-29 -1 -53 -6 -53 -12 0 -6
-42 -10 -105 -10 l-105 0 0 -345 0 -345 490 0 490 0 0 455 0 455 -385 0 -385
0 0 -94z m625 44 c0 -7 -6 -15 -12 -17 -8 -3 -13 4 -13 17 0 13 5 20 13 18 6
-3 12 -11 12 -18z m-75 -6 c0 -17 -22 -14 -28 4 -2 7 3 12 12 12 9 0 16 -7 16
-16z m150 7 c0 -14 -18 -23 -30 -16 -6 4 -8 11 -5 16 8 12 35 12 35 0z m-462
-148 c-21 -2 -55 -2 -75 0 -21 2 -4 4 37 4 41 0 58 -2 38 -4z m-348 -55 c0
-16 -3 -19 -11 -11 -6 6 -8 16 -5 22 11 17 16 13 16 -11z m283 -5 c-29 -2 -78
-2 -110 0 -32 2 -8 3 52 3 61 0 87 -1 58 -3z m165 0 c-16 -2 -40 -2 -55 0 -16
2 -3 4 27 4 30 0 43 -2 28 -4z m-448 -68 c0 -8 -4 -15 -10 -15 -5 0 -10 7 -10
15 0 8 5 15 10 15 6 0 10 -7 10 -15z m268 8 c-16 -2 -40 -2 -55 0 -16 2 -3 4
27 4 30 0 43 -2 28 -4z m310 0 c-42 -2 -114 -2 -160 0 -46 1 -11 3 77 3 88 0
125 -2 83 -3z m-578 -88 c0 -8 -4 -15 -10 -15 -5 0 -10 7 -10 15 0 8 5 15 10
15 6 0 10 -7 10 -15z m258 -42 c-16 -2 -40 -2 -55 0 -16 2 -3 4 27 4 30 0 43
-2 28 -4z m160 0 c-16 -2 -40 -2 -55 0 -16 2 -3 4 27 4 30 0 43 -2 28 -4z
m-418 -35 c0 -16 -3 -19 -11 -11 -6 6 -8 16 -5 22 11 17 16 13 16 -11z m208
-35 c-21 -2 -57 -2 -80 0 -24 2 -7 4 37 4 44 0 63 -2 43 -4z m225 0 c-24 -2
-62 -2 -85 0 -24 2 -5 4 42 4 47 0 66 -2 43 -4z m-433 -38 c0 -8 -4 -15 -10
-15 -5 0 -10 7 -10 15 0 8 5 15 10 15 6 0 10 -7 10 -15z m290 -25 c0 -5 -25
-10 -55 -10 -30 0 -55 5 -55 10 0 6 25 10 55 10 30 0 55 -4 55 -10z m-290 -52
c0 -16 -3 -19 -11 -11 -6 6 -8 16 -5 22 11 17 16 13 16 -11z m428 -15 c-43 -2
-113 -2 -155 0 -43 1 -8 3 77 3 85 0 120 -2 78 -3z m175 0 c-13 -2 -35 -2 -50
0 -16 2 -5 4 22 4 28 0 40 -2 28 -4z m-603 -58 c0 -8 -4 -15 -10 -15 -5 0 -10
7 -10 15 0 8 5 15 10 15 6 0 10 -7 10 -15z m358 -2 c-42 -2 -114 -2 -160 0
-46 1 -11 3 77 3 88 0 125 -2 83 -3z m360 0 c-42 -2 -114 -2 -160 0 -46 1 -11
3 77 3 88 0 125 -2 83 -3z m-718 -63 c0 -5 -5 -10 -11 -10 -5 0 -7 5 -4 10 3
6 8 10 11 10 2 0 4 -4 4 -10z m198 3 c-21 -2 -57 -2 -80 0 -24 2 -7 4 37 4 44
0 63 -2 43 -4z m215 0 c-24 -2 -62 -2 -85 0 -24 2 -5 4 42 4 47 0 66 -2 43 -4z
m210 0 c-24 -2 -62 -2 -85 0 -24 2 -5 4 42 4 47 0 66 -2 43 -4z"/>
<path d="M2468 3585 c-36 -20 -46 -70 -23 -114 23 -46 55 -55 150 -41 105 15
135 5 135 -44 0 -19 5 -38 10 -41 6 -3 10 -21 10 -40 0 -19 5 -37 10 -40 6 -3
10 3 10 15 0 29 18 60 35 60 26 0 38 -40 32 -107 -6 -84 11 -79 41 13 35 105
38 145 15 196 -11 24 -25 55 -31 71 -8 18 -19 27 -34 27 -12 0 -34 12 -49 26
-26 25 -30 26 -59 14 -25 -10 -35 -10 -55 0 -19 10 -31 11 -50 2 -19 -9 -32
-8 -59 3 -43 18 -54 18 -88 0z"/>
<path d="M906 2364 c-23 -22 -20 -60 6 -78 20 -14 113 -16 803 -17 l780 0
-141 -29 c-316 -65 -506 -149 -535 -237 -24 -73 1 -456 52 -795 l11 -78 106 0
105 0 -6 88 c-4 48 -10 201 -13 339 -6 194 -4 258 6 282 7 17 16 31 20 31 10
0 20 -26 20 -50 0 -27 46 -180 87 -289 34 -91 159 -391 167 -398 2 -2 24 6 50
17 25 11 66 29 90 39 l44 20 -29 93 c-91 290 -143 495 -132 524 7 20 76 39
313 89 118 25 223 48 233 51 15 5 17 19 17 108 l0 103 -61 22 c-77 29 -179 49
-299 60 -66 6 71 9 453 10 356 1 555 5 568 11 26 15 26 75 0 90 -13 7 -455 10
-1360 10 -1204 0 -1341 -2 -1355 -16z"/>
<path d="M3050 2060 c0 -76 8 -81 59 -36 44 39 43 58 -5 83 -24 13 -46 23 -49
23 -3 0 -5 -31 -5 -70z"/>
<path d="M3068 1893 c-12 -3 -18 -14 -18 -34 0 -16 4 -29 8 -29 14 0 42 35 42
53 0 17 -2 18 -32 10z"/>
<path d="M2600 1858 c0 -4 10 -14 22 -22 16 -11 46 -16 100 -16 l78 0 0 -315
0 -315 -25 0 c-24 0 -25 -2 -25 -65 l0 -65 95 0 95 0 0 65 c0 63 -1 65 -25 65
l-25 0 0 315 0 315 35 0 c30 0 35 3 35 23 l0 22 -180 0 c-99 0 -180 -3 -180
-7z"/>
<path d="M3745 1733 c-24 -6 -78 -68 -73 -84 2 -7 20 5 41 26 20 21 37 34 37
29 -1 -18 -26 -53 -52 -74 -16 -12 -28 -31 -28 -43 1 -19 7 -15 45 26 25 27
45 46 45 42 0 -16 -43 -75 -67 -93 -19 -14 -24 -24 -19 -38 7 -17 13 -13 52
31 24 28 44 45 44 40 0 -6 -21 -34 -46 -63 -57 -65 -53 -89 5 -31 24 24 39 35
33 24 -6 -11 -27 -37 -48 -58 -50 -50 -34 -61 17 -11 25 23 37 31 31 18 -6
-12 -27 -35 -47 -53 -41 -36 -39 -59 4 -36 22 11 31 11 41 2 10 -10 11 -6 6
16 -5 21 -4 27 5 21 9 -5 10 -2 6 9 -4 10 -2 17 4 17 6 0 9 7 6 15 -4 8 -1 17
4 21 6 3 8 17 4 31 -4 16 -2 22 5 18 6 -3 10 3 10 14 0 12 -4 21 -10 21 -5 0
-10 5 -10 11 0 6 7 9 15 5 21 -8 20 30 -1 42 -11 6 -18 27 -22 61 -2 28 -7 50
-11 50 -3 -1 -15 -4 -26 -6z"/>
<path d="M3630 1700 c-13 -8 -12 -10 3 -10 9 0 17 5 17 10 0 12 -1 12 -20 0z"/>
<path d="M3541 1681 c-13 -3 -27 -15 -31 -25 -7 -22 19 -168 32 -177 5 -3 6
-13 2 -22 -4 -12 -1 -17 12 -17 14 0 15 -3 6 -12 -17 -17 -15 -33 3 -18 18 15
20 -1 3 -18 -17 -17 0 -28 23 -14 14 9 25 10 39 2 17 -9 20 -8 20 10 0 12 -7
20 -17 20 -10 0 -25 5 -33 11 -11 8 -7 9 18 4 25 -5 32 -3 32 9 0 10 -9 16
-22 16 -13 0 -30 5 -38 11 -11 8 -5 9 23 4 50 -8 47 6 -8 28 -25 11 -45 24
-45 29 0 6 11 3 25 -6 36 -24 65 -21 65 7 0 17 -10 25 -47 37 -26 8 -49 21
-51 28 -3 11 2 11 24 -1 16 -8 39 -18 52 -22 20 -6 23 -4 20 15 -2 15 -15 26
-42 35 -41 14 -81 45 -58 45 7 0 23 -6 35 -14 12 -8 32 -17 45 -21 19 -6 22
-3 22 24 0 25 -4 31 -22 31 -13 0 -32 2 -43 4 -11 3 -31 1 -44 -3z"/>
<path d="M3873 1629 c-44 -28 -42 -46 2 -20 19 11 35 17 35 12 0 -12 -32 -38
-57 -45 -13 -4 -23 -14 -23 -22 0 -12 4 -13 23 -3 12 6 30 18 40 27 11 10 17
11 17 3 0 -6 -20 -24 -44 -39 -25 -15 -47 -35 -49 -45 -6 -19 1 -17 51 20 18
14 36 23 39 20 5 -6 -68 -62 -90 -70 -7 -2 -9 -8 -5 -12 4 -4 24 3 45 16 38
23 38 23 19 1 -14 -17 -16 -22 -5 -22 17 -1 -41 -50 -58 -50 -7 0 -13 -7 -13
-15 0 -12 5 -13 27 -4 58 22 78 57 99 172 7 45 14 85 14 90 0 14 -35 7 -67
-14z"/>
<path d="M3405 1588 c-11 -6 -22 -12 -24 -14 -1 -1 5 -27 14 -56 31 -92 87
-158 136 -158 20 0 2 24 -22 31 -23 7 -23 7 -1 8 37 2 24 21 -15 22 l-38 2 35
7 c19 4 28 8 20 9 -8 1 -28 8 -45 15 -30 14 -30 14 14 8 39 -4 44 -3 38 12 -4
10 -7 20 -7 22 0 2 -13 4 -29 4 -35 0 -61 9 -61 21 0 5 12 4 26 -1 35 -14 67
-13 62 2 -2 6 -28 18 -56 26 -29 8 -52 19 -52 24 0 6 8 7 18 3 9 -4 31 -9 49
-12 29 -5 31 -3 26 16 -4 16 -13 21 -37 21 -17 0 -40 -6 -51 -12z"/>
<path d="M3823 1438 c-13 -6 -23 -15 -23 -20 0 -5 14 -2 30 7 45 23 38 35 -7
13z"/>
<path d="M2537 1092 c-32 -13 -45 -13 -73 -3 -33 12 -34 12 -123 -66 -49 -43
-89 -79 -88 -80 1 -1 22 2 47 7 25 5 111 21 193 36 81 14 147 28 147 30 0 15
-46 94 -54 93 -6 -1 -28 -8 -49 -17z"/>
<path d="M1797 1005 l-98 -63 198 5 c109 3 200 7 202 9 1 1 -5 26 -14 54 -11
34 -21 50 -30 46 -42 -16 -85 -17 -113 -2 -17 9 -35 16 -39 15 -4 0 -52 -29
-106 -64z"/>
<path d="M2800 945 l0 -45 45 0 45 0 0 45 0 45 -45 0 -45 0 0 -45z"/>
<path d="M3220 969 c-17 -30 11 -69 50 -69 39 0 67 39 50 69 -8 16 -21 21 -50
21 -29 0 -42 -5 -50 -21z"/>
<path d="M2418 923 c-16 -2 -28 -9 -28 -14 0 -15 56 -10 70 6 13 16 13 16 -42
8z"/>
</g>
</svg>
