<?xml version="1.0" standalone="no"?>
<!DOCTYPE svg PUBLIC "-//W3C//DTD SVG 20010904//EN"
 "http://www.w3.org/TR/2001/REC-SVG-20010904/DTD/svg10.dtd">
<svg version="1.0" xmlns="http://www.w3.org/2000/svg"
 width="702.000000pt" height="431.000000pt" viewBox="0 0 702.000000 431.000000"
 preserveAspectRatio="xMidYMid meet">
<metadata>
Created by potrace 1.16, written by Peter Selinger 2001-2019
</metadata>
<g transform="translate(0.000000,431.000000) scale(0.100000,-0.100000)"
fill="#000000" stroke="none">
<path d="M3240 3715 l0 -145 -1208 0 -1209 0 -21 -23 -22 -23 0 -793 0 -793
53 47 52 48 3 -48 c4 -65 -30 -171 -73 -228 l-35 -46 -1 -353 0 -353 -58 220
c-32 121 -69 256 -83 301 l-25 81 45 64 c25 35 66 89 92 119 64 75 72 93 19
43 -24 -24 -69 -79 -99 -122 -30 -44 -57 -80 -60 -80 -3 -1 -18 43 -35 97 -40
132 -132 383 -145 396 -6 6 1 -21 16 -59 34 -89 169 -491 178 -529 l7 -30 -53
45 c-126 107 -209 172 -213 167 -4 -3 255 -225 271 -232 1 -1 4 -11 8 -22 6
-21 0 -20 -141 22 -81 24 -155 43 -163 41 -8 -1 57 -24 145 -50 88 -26 163
-51 167 -55 11 -11 82 -281 76 -287 -3 -3 -45 11 -94 30 -79 32 -258 85 -287
85 -25 0 7 -12 106 -40 143 -40 285 -98 291 -118 15 -49 36 -169 36 -208 l0
-45 -58 45 c-63 49 -151 92 -203 99 -19 2 -26 2 -17 0 14 -4 6 -18 -42 -74
-65 -75 -95 -117 -89 -124 3 -2 33 32 68 75 95 119 88 115 154 90 31 -12 59
-25 61 -29 3 -4 -2 -49 -10 -101 -8 -51 -13 -102 -12 -114 2 -12 10 13 17 54
7 41 15 92 19 114 l7 38 53 -47 52 -47 0 -139 0 -139 -135 0 -135 0 0 -65 c0
-58 2 -65 19 -65 11 0 23 -5 26 -11 4 -5 6 -65 6 -132 -1 -139 12 -176 72
-202 29 -13 10 -14 -193 -17 -124 -2 794 -6 2040 -10 1246 -4 2292 -8 2325
-10 94 -4 173 11 201 38 30 31 47 30 64 -2 12 -22 12 -27 0 -34 -8 -6 -23 -10
-32 -10 -9 0 -20 -5 -24 -11 -4 -7 0 -9 12 -5 11 3 30 7 44 10 14 2 38 9 54
15 20 8 130 11 337 11 170 -1 312 1 317 4 5 3 24 1 43 -4 19 -5 59 -10 89 -11
81 -3 270 3 238 8 -22 3 -28 10 -28 30 0 15 7 35 17 45 9 10 11 18 6 18 -18 0
-36 -30 -36 -61 l0 -29 -84 0 c-75 0 -88 3 -119 26 -26 21 -42 25 -74 22 -22
-2 -40 -2 -40 -1 0 1 5 13 11 27 10 21 15 23 30 15 13 -6 26 -6 39 1 17 9 20
8 20 -7 0 -10 9 0 19 22 12 28 15 42 7 47 -6 4 -8 8 -5 8 8 0 278 -76 300 -85
25 -9 39 43 39 146 l0 89 -110 0 -110 0 0 46 c0 44 4 51 66 117 72 76 124 171
124 226 0 46 -35 116 -69 141 -16 10 -49 25 -74 32 l-46 12 -3 103 -3 103 -69
-187 c-46 -128 -76 -195 -93 -211 l-25 -23 -371 7 -371 7 -45 29 -45 28 107 0
106 0 76 238 c42 130 84 243 93 249 11 9 65 13 184 13 l168 0 0 420 c0 501 -1
493 82 488 l53 -3 3 -294 c2 -208 -1 -298 -9 -307 -9 -11 -9 -14 0 -14 9 0 11
-39 9 -144 l-3 -145 80 -3 80 -3 -3 147 -3 148 493 2 493 3 0 800 0 800 -328
0 -327 0 325 -2 325 -3 0 -795 0 -795 -560 0 c-308 0 -560 3 -559 8 0 4 45 43
99 87 l99 80 -2 620 -2 620 -2 -616 -3 -616 -25 -23 -25 -23 0 904 c0 897 0
905 -20 927 -14 14 -33 22 -55 22 l-35 0 0 -685 0 -684 -81 -3 -81 -3 -55
-145 c-31 -80 -59 -148 -62 -153 -4 -4 -37 61 -73 145 l-67 153 -99 3 c-94 3
-100 4 -95 22 7 26 -15 78 -38 90 -35 19 -88 12 -114 -16 l-25 -27 -1 24 c-1
17 -3 19 -6 7 -5 -21 -23 -24 -23 -4 0 8 -14 26 -31 40 -42 35 -82 34 -121 -4
-26 -26 -37 -30 -86 -30 -46 -1 -53 -3 -38 -11 10 -6 35 -8 56 -5 37 6 38 5
44 -29 14 -71 99 -99 150 -49 14 15 26 33 26 40 0 23 19 16 24 -8 16 -81 16
-87 -7 -91 -18 -4 -18 -4 6 -6 17 -1 27 4 27 13 0 12 5 12 30 -1 18 -8 41 -12
55 -9 29 7 30 2 14 -92 -14 -78 -51 -126 -112 -144 -48 -14 -57 -23 -57 -58 0
-23 9 -29 78 -54 95 -35 176 -86 202 -129 l20 -32 -43 -12 -42 -12 48 2 48 2
94 -160 94 -160 -99 -5 c-54 -3 -101 -8 -105 -12 -4 -3 -13 -24 -20 -45 -16
-44 -19 -38 -35 71 -9 58 -9 80 -1 86 6 3 46 15 89 25 42 10 72 20 65 22 -7 3
-46 -5 -88 -16 -41 -12 -77 -21 -80 -21 -3 0 -5 19 -5 42 0 23 -2 39 -5 36 -3
-3 -5 -106 -5 -229 -1 -123 -4 -229 -8 -236 -8 -12 -227 -73 -264 -73 -33 0
-136 60 -172 100 -42 47 -83 149 -64 161 10 7 9 9 -3 9 -11 0 -19 12 -23 34
-4 18 -17 55 -30 80 -13 26 -27 76 -31 111 l-6 64 48 4 48 3 -52 2 -53 2 0
-34 c0 -37 17 -263 25 -333 l5 -42 -82 -26 c-44 -14 -107 -28 -138 -32 -68 -7
-62 -19 -81 166 -8 88 -8 115 1 121 10 6 10 8 0 12 -12 4 -29 115 -30 199 l0
46 58 6 c180 19 232 20 232 4 0 -9 5 -19 11 -23 19 -11 1 46 -27 89 -28 43
-71 72 -129 88 l-40 11 95 38 95 39 -310 3 -310 3 326 3 c258 2 334 5 361 16
l35 15 12 99 c6 55 14 115 17 134 6 33 4 36 -25 46 -17 6 -34 18 -37 27 -5 13
-88 15 -750 15 l-744 0 0 825 0 824 88 4 87 3 -92 2 -93 2 0 -145z m-2 -362
l3 -83 -1091 0 -1090 0 0 -842 0 -842 29 46 c16 26 48 63 70 84 38 36 121 88
128 80 2 -2 -3 -23 -11 -47 -21 -58 -21 -57 17 -62 l32 -4 -37 -1 c-31 -2 -39
-8 -62 -45 -25 -44 -139 -157 -157 -157 -5 0 -9 -48 -9 -111 0 -102 1 -111 18
-104 25 10 122 25 161 25 l34 0 -23 -25 c-25 -27 -152 -95 -176 -95 -11 0 -14
-35 -14 -183 l0 -183 62 -13 c87 -18 169 -64 225 -125 60 -66 101 -136 80
-136 -33 0 -198 54 -276 91 -46 21 -85 39 -87 39 -2 0 -4 -27 -4 -60 l0 -60
-74 0 -75 0 -3 118 -3 118 75 -17 c130 -31 232 -71 303 -121 16 -11 31 -18 34
-15 9 10 -105 77 -175 104 -37 14 -103 33 -147 42 l-80 17 -3 37 c-3 31 38
286 54 339 5 18 49 38 174 79 47 15 75 28 64 28 -25 1 -162 -42 -206 -65 l-31
-16 7 39 c29 159 82 287 166 398 29 39 57 77 63 85 6 8 -4 2 -22 -15 -51 -47
-126 -166 -160 -254 -17 -44 -31 -87 -31 -96 0 -24 -16 -17 -29 13 -18 39 -85
142 -93 142 -3 0 20 -45 51 -99 l58 -100 -28 -155 c-15 -85 -29 -161 -32 -168
-3 -7 -6 73 -6 179 l-1 192 -39 60 c-34 53 -60 126 -48 137 2 2 23 -9 45 -26
l42 -30 0 968 c0 533 3 972 7 975 3 4 527 6 1162 5 l1156 -3 3 -82z m-1975
-380 c-7 -2 -19 -2 -25 0 -7 3 -2 5 12 5 14 0 19 -2 13 -5z m164 -1610 c-1
-296 -2 -56 -2 532 0 589 1 831 2 538 2 -292 2 -774 0 -1070z m-164 1280 c-7
-2 -19 -2 -25 0 -7 3 -2 5 12 5 14 0 19 -2 13 -5z m1760 0 c-29 -2 -77 -2
-105 0 -29 2 -6 3 52 3 58 0 81 -1 53 -3z m-1740 -160 c-13 -2 -35 -2 -50 0
-16 2 -5 4 22 4 28 0 40 -2 28 -4z m1365 0 c-98 -2 -258 -2 -355 0 -98 1 -18
2 177 2 195 0 275 -1 178 -2z m2396 -144 c35 -16 52 -61 37 -98 -12 -28 -47
-51 -77 -51 -23 0 -74 55 -74 80 0 25 51 80 74 80 8 0 26 -5 40 -11z m-3761
-16 c-18 -2 -48 -2 -65 0 -18 2 -4 4 32 4 36 0 50 -2 33 -4z m1410 0 c-123 -2
-323 -2 -445 0 -123 1 -23 2 222 2 245 0 345 -1 223 -2z m2574 -28 c32 -23 37
-61 13 -101 -19 -29 -27 -34 -60 -34 -70 0 -104 83 -53 130 9 8 13 9 9 3 -5
-9 1 -13 18 -13 13 0 33 -3 43 -7 16 -6 16 -5 5 10 -8 8 -23 18 -35 20 -16 3
-14 5 8 6 17 0 40 -6 52 -14z m-3979 -132 c-21 -2 -55 -2 -75 0 -21 2 -4 4 37
4 41 0 58 -2 38 -4z m745 0 c-51 -2 -136 -2 -190 0 -54 1 -12 3 92 3 105 0
149 -2 98 -3z m1110 0 c-139 -2 -367 -2 -505 0 -139 1 -26 2 252 2 278 0 391
-1 253 -2z m1330 0 c-139 -2 -367 -2 -505 0 -139 1 -26 2 252 2 278 0 391 -1
253 -2z m-3185 -160 c-21 -2 -55 -2 -75 0 -21 2 -4 4 37 4 41 0 58 -2 38 -4z
m-1 -160 c-20 -2 -52 -2 -70 0 -17 2 0 4 38 4 39 0 53 -2 32 -4z m2161 0
c-126 -2 -330 -2 -455 0 -126 1 -23 2 227 2 250 0 353 -1 228 -2z m1064 -103
c33 0 96 -39 124 -75 15 -20 25 -37 23 -39 -6 -6 -263 -26 -268 -21 -2 3 1 23
8 45 15 51 70 115 84 101 6 -6 19 -11 29 -11z m-3224 -217 c-21 -2 -55 -2 -75
0 -21 2 -4 4 37 4 41 0 58 -2 38 -4z m965 0 c-73 -2 -193 -2 -265 0 -73 1 -14
3 132 3 146 0 205 -2 133 -3z m885 0 c-93 -2 -243 -2 -335 0 -93 1 -17 3 167
3 184 0 260 -2 168 -3z m-1855 -160 c-18 -2 -48 -2 -65 0 -18 2 -4 4 32 4 36
0 50 -2 33 -4z m1445 0 c-142 -2 -374 -2 -515 0 -142 1 -26 2 257 2 283 0 399
-1 258 -2z m1290 0 c-142 -2 -374 -2 -515 0 -142 1 -26 2 257 2 283 0 399 -1
258 -2z m-2740 -160 c-16 -2 -40 -2 -55 0 -16 2 -3 4 27 4 30 0 43 -2 28 -4z
m1425 0 c-128 -2 -338 -2 -465 0 -128 1 -24 2 232 2 256 0 360 -1 233 -2z
m2014 -135 c9 -20 5 -24 -28 -41 -37 -18 -79 -70 -79 -98 0 -8 9 0 19 17 19
30 80 84 96 84 4 0 35 -13 69 -29 33 -16 110 -48 171 -71 60 -22 113 -44 117
-48 14 -14 -32 -92 -54 -92 -11 0 -56 18 -100 40 -45 22 -89 40 -100 40 -27 0
-22 20 14 57 18 18 27 33 22 33 -13 0 -47 -37 -63 -67 -8 -17 -21 -23 -44 -23
-33 0 -123 -46 -146 -74 -12 -14 -18 -12 -58 15 -55 38 -99 97 -107 146 -4 21
-9 45 -12 54 -4 13 7 17 59 22 36 3 95 17 133 30 38 13 72 25 75 26 3 0 10 -9
16 -21z m-3449 -25 c-10 -2 -26 -2 -35 0 -10 3 -2 5 17 5 19 0 27 -2 18 -5z
m745 0 c-40 -2 -107 -2 -150 0 -43 1 -10 3 72 3 83 0 118 -2 78 -3z m1070 0
c-106 -2 -280 -2 -385 0 -106 1 -20 2 192 2 212 0 298 -1 193 -2z m1190 0
c-78 -2 -208 -2 -290 0 -81 1 -17 3 142 3 160 0 226 -2 148 -3z m997 -60 c0
-14 -36 -122 -42 -128 -3 -4 -49 11 -102 31 -92 37 -106 53 -46 54 14 1 59 12
100 24 89 28 90 28 90 19z m-96 -129 c39 -13 47 -20 44 -38 -3 -19 -10 -21
-81 -24 l-78 -3 21 41 c23 45 28 46 94 24z m-597 -104 c-17 -28 -27 -25 -27
10 0 28 2 30 20 20 17 -9 18 -14 7 -30z m-3689 -517 c-54 -2 -142 -2 -195 0
-54 1 -10 3 97 3 107 0 151 -2 98 -3z m4372 -43 c37 -35 45 -37 30 -11 -9 19
-8 19 29 4 l39 -15 -22 -33 c-19 -29 -33 -37 -129 -65 -60 -18 -109 -30 -110
-29 -1 2 -10 19 -19 36 l-17 33 32 23 c59 44 122 86 128 87 4 0 21 -13 39 -30z
m-4378 13 c-50 -2 -134 -2 -185 0 -50 1 -9 3 93 3 102 0 143 -2 92 -3z m4992
-9 c9 -23 8 -24 -19 -24 -23 0 -24 2 -15 20 13 24 26 26 34 4z m-470 -42 c3
-5 -10 -16 -29 -25 -38 -18 -44 -14 -18 15 17 19 38 24 47 10z m471 -2 c-3 -5
-13 -10 -21 -10 -8 0 -12 5 -9 10 3 6 13 10 21 10 8 0 12 -4 9 -10z m-445 -14
c0 -7 -45 -33 -70 -40 -14 -4 -5 5 20 18 49 27 50 28 50 22z m465 -83 c18 -13
17 -14 -20 -8 -22 3 -51 9 -65 12 l-25 6 25 7 c29 9 57 3 85 -17z"/>
<path d="M4990 2323 c69 -23 73 -23 60 -8 -7 8 -27 15 -44 14 -17 0 -24 -3
-16 -6z"/>
<path d="M5012 2253 c2 -10 10 -18 18 -18 8 0 16 8 18 18 2 12 -3 17 -18 17
-15 0 -20 -5 -18 -17z"/>
<path d="M5195 2230 c-8 -14 3 -30 21 -30 8 0 14 9 14 20 0 21 -24 28 -35 10z"/>
<path d="M5230 160 c18 -17 34 -29 37 -27 7 8 -39 57 -54 57 -10 0 -4 -11 17
-30z"/>
<path d="M5182 142 c13 -16 25 -25 27 -20 4 11 -28 48 -41 48 -5 0 1 -13 14
-28z"/>
<path d="M3351 3781 c-17 -11 -7 -41 13 -41 22 0 30 20 15 36 -9 8 -19 10 -28
5z"/>
<path d="M3431 3781 c-17 -11 -7 -41 13 -41 22 0 30 20 15 36 -9 8 -19 10 -28
5z"/>
<path d="M3511 3780 c-17 -10 -7 -40 13 -40 7 0 16 6 19 14 8 19 -15 37 -32
26z"/>
<path d="M3933 3683 c362 -2 952 -2 1310 0 359 1 63 2 -658 2 -720 0 -1014 -1
-652 -2z"/>
<path d="M3595 3448 c-11 -29 -55 -162 -55 -165 0 -2 4 -3 9 -3 5 0 21 35 36
78 15 42 29 83 32 90 2 6 0 12 -6 12 -7 0 -14 -6 -16 -12z"/>
<path d="M3488 3392 c-21 -8 -38 -19 -38 -24 0 -12 69 -40 83 -34 7 2 -3 10
-21 17 l-32 13 31 17 c42 21 24 30 -23 11z"/>
<path d="M3620 3400 c0 -6 12 -16 28 -22 l27 -11 -27 -10 c-25 -10 -39 -27
-21 -27 22 0 73 26 73 37 0 7 -2 13 -4 13 -2 0 -20 7 -40 15 -22 9 -36 11 -36
5z"/>
<path d="M3722 3321 c2 -7 7 -12 11 -12 12 1 9 15 -3 20 -7 2 -11 -2 -8 -8z"/>
<path d="M3766 3321 c-4 -5 -2 -12 3 -15 5 -4 12 -2 15 3 4 5 2 12 -3 15 -5 4
-12 2 -15 -3z"/>
<path d="M3805 3321 c-6 -11 9 -23 19 -14 9 9 7 23 -3 23 -6 0 -12 -4 -16 -9z"/>
<path d="M3963 3153 c207 -2 547 -2 755 0 207 1 37 2 -378 2 -415 0 -585 -1
-377 -2z"/>
<path d="M5375 3150 c-14 -6 4 -9 55 -9 51 0 69 3 55 9 -11 5 -36 9 -55 9 -19
0 -44 -4 -55 -9z"/>
<path d="M5610 3150 c-17 -5 3 -8 60 -8 57 0 77 3 60 8 -14 4 -41 8 -60 8 -19
0 -46 -4 -60 -8z"/>
<path d="M6134 3109 c-8 -14 11 -33 25 -25 6 4 11 14 11 22 0 16 -26 19 -36 3z"/>
<path d="M6202 3103 c2 -10 10 -18 18 -18 8 0 16 8 18 18 2 12 -3 17 -18 17
-15 0 -20 -5 -18 -17z"/>
<path d="M6272 3103 c2 -10 10 -18 18 -18 22 0 18 29 -3 33 -14 3 -18 -1 -15
-15z"/>
<path d="M6323 3023 c125 -2 329 -2 455 0 125 1 22 2 -228 2 -250 0 -353 -1
-227 -2z"/>
<path d="M3798 3003 c128 -2 335 -2 460 0 125 1 20 2 -233 2 -253 0 -355 -1
-227 -2z"/>
<path d="M4763 3003 c42 -2 112 -2 155 0 42 1 7 3 -78 3 -85 0 -120 -2 -77 -3z"/>
<path d="M3668 2923 c23 -2 61 -2 85 0 23 2 4 4 -43 4 -47 0 -66 -2 -42 -4z"/>
<path d="M3853 2923 c20 -2 54 -2 75 0 20 2 3 4 -38 4 -41 0 -58 -2 -37 -4z"/>
<path d="M4063 2923 c20 -2 54 -2 75 0 20 2 3 4 -38 4 -41 0 -58 -2 -37 -4z"/>
<path d="M4257 2923 c18 -2 50 -2 70 0 21 2 7 4 -32 4 -38 0 -55 -2 -38 -4z"/>
<path d="M4543 2923 c82 -2 212 -2 290 0 78 1 12 3 -148 3 -159 0 -223 -2
-142 -3z"/>
<path d="M4032 2833 c223 -2 592 -2 820 0 227 1 44 2 -407 2 -451 0 -637 -1
-413 -2z"/>
<path d="M3738 2733 c68 -2 176 -2 240 0 64 1 9 3 -123 3 -132 0 -185 -2 -117
-3z"/>
<path d="M3768 2623 c67 -2 177 -2 245 0 67 1 12 3 -123 3 -135 0 -190 -2
-122 -3z"/>
<path d="M4723 2443 c15 -2 37 -2 50 0 12 2 0 4 -28 4 -27 0 -38 -2 -22 -4z"/>
<path d="M5030 2128 c0 -17 8 -33 22 -42 26 -18 38 -20 38 -6 0 6 -7 10 -15
10 -9 0 -22 15 -30 33 -14 32 -14 32 -15 5z"/>
<path d="M4691 1749 c-24 -5 -47 -11 -50 -15 -7 -7 81 5 119 17 l25 7 -25 0
c-14 0 -45 -4 -69 -9z"/>
<path d="M5100 1749 c25 -4 63 -7 85 -7 39 1 39 1 -10 8 -27 5 -66 8 -85 8
-32 0 -31 -1 10 -9z"/>
<path d="M5264 1683 c2 -10 8 -43 12 -73 7 -56 22 -108 23 -80 2 35 -23 170
-31 170 -5 0 -7 -8 -4 -17z"/>
<path d="M4930 1520 l-145 -6 135 -1 c74 0 162 3 195 7 60 7 60 7 10 6 -27 0
-115 -3 -195 -6z"/>
<path d="M4485 1350 l-60 -7 55 0 c30 0 84 3 120 7 l65 7 -60 0 c-33 0 -87 -3
-120 -7z"/>
<path d="M6061 1244 c0 -11 3 -14 6 -6 3 7 2 16 -1 19 -3 4 -6 -2 -5 -13z"/>
<path d="M4950 1224 l-155 -12 140 5 c77 2 178 8 225 12 l85 8 -70 0 c-38 0
-140 -6 -225 -13z"/>
<path d="M418 993 c12 -2 30 -2 40 0 9 3 -1 5 -23 4 -22 0 -30 -2 -17 -4z"/>
<path d="M5946 158 c-9 -12 -16 -32 -16 -43 1 -14 6 -10 21 18 23 44 20 60 -5
25z"/>
<path d="M5986 138 c-9 -12 -16 -32 -15 -43 0 -17 2 -17 10 5 6 13 17 33 26
42 9 10 11 18 5 18 -6 0 -18 -10 -26 -22z"/>
<path d="M6037 132 c-10 -10 -17 -26 -17 -35 0 -29 15 -19 26 18 13 41 13 41
-9 17z"/>
<path d="M6328 43 c67 -2 177 -2 245 0 67 1 12 3 -123 3 -135 0 -190 -2 -122
-3z"/>
</g>
</svg>
